<svg xmlns="http://www.w3.org/2000/svg" width="18.448" height="18.448" viewBox="0 0 18.448 18.448">
  <path id="Icon_awesome-download" data-name="Icon awesome-download" d="M7.783,0h2.883a.863.863,0,0,1,.865.865V6.918h3.16A.719.719,0,0,1,15.2,8.147l-5.48,5.484a.7.7,0,0,1-.984,0L3.246,8.147a.719.719,0,0,1,.508-1.229H6.918V.865A.863.863,0,0,1,7.783,0ZM18.448,13.548v4.036a.863.863,0,0,1-.865.865H.865A.863.863,0,0,1,0,17.583V13.548a.863.863,0,0,1,.865-.865H6.151l1.766,1.766a1.846,1.846,0,0,0,2.616,0L12.3,12.683h5.286A.863.863,0,0,1,18.448,13.548ZM13.98,16.719a.721.721,0,1,0-.721.721A.723.723,0,0,0,13.98,16.719Zm2.306,0a.721.721,0,1,0-.721.721A.723.723,0,0,0,16.286,16.719Z" fill="#fff"/>
</svg>
